<svg xmlns="http://www.w3.org/2000/svg" viewBox="190 45 230 195" role="img" aria-label="Virtumarc Government brandmark">
  <path fill="#002147" d="M215.54,87.48h177.4c-7.44-7-37.52-33.68-84.23-35.29-52.36-1.81-86.71,29.22-93.17,35.29Z"/>
  <path fill="#bb133e" d="M412.75,92.81c-28.48,27.61-80.31,73.88-107.6,101.8-15.2,15.55-5.94,22.9-.91,37.96,10.56-.02,40.75-11.92,72.44-45.33,35.16-39.19,36.38-85.27,36.07-94.43Z"/>
  <path fill="#bb133e" d="M196.37,92.81c28.48,27.61,80.31,73.88,107.6,101.8,15.2,15.55,5.94,22.9.91,37.96-10.56-.02-40.75-11.92-72.44-45.33-35.16-39.19-36.38-85.27-36.07-94.43Z"/>
</svg>
