<?xml version="1.0" encoding="UTF-8"?>
<svg id="Layer_1" data-name="Layer 1" xmlns="http://www.w3.org/2000/svg" viewBox="0 0 553.15 124.32">
  <defs>
    <style>
      .cls-1 {
        fill: #ffffff;
        stroke: none;
      }

      .cls-2 {
        fill: #002147;
      }

      .cls-3 {
        fill: #bb133e;
      }

      .cls-4 {
        fill: #aeb9c4;
      }
    </style>
  </defs>
  <g>
    <path class="cls-2" d="M26.73,34.07h93.25c-3.91-3.59-19.72-17.25-44.28-18.07-27.52-.92-45.58,14.97-48.98,18.07Z"/>
    <path class="cls-3" d="M130.39,36.8c-14.97,14.14-42.22,37.83-56.56,52.13-7.99,7.96-3.13,11.73-.48,19.44,5.55-.01,21.42-6.1,38.08-23.21,18.48-20.07,19.12-43.67,18.96-48.36Z"/>
    <path class="cls-3" d="M16.65,36.8c14.97,14.14,42.22,37.83,56.56,52.13,7.99,7.96,3.13,11.73.48,19.44-5.55-.01-21.42-6.1-38.08-23.21-18.48-20.07-19.12-43.67-18.96-48.36Z"/>
  </g>
  <g>
    <path class="cls-1" d="M161.78,51.5h.26l16.67-40.87h14.28l-27.96,65.66h-6.58l-28.04-65.66h14.62l16.76,40.87Z"/>
    <path class="cls-1" d="M197.18,17.48c0-4.1,2.99-7.01,7.1-7.01s7.18,2.91,7.18,7.01c0,4.36-2.82,7.1-7.18,7.1s-7.1-2.74-7.1-7.1ZM210.6,32.61v42.58h-12.57v-42.58h12.57Z"/>
    <path class="cls-1" d="M221.28,32.61h12.31v6.84h.26c2.82-4.53,8.29-7.69,12.14-7.69,1.11,0,1.88.09,2.56.26v13.17l-.26.09c-1.54-1.03-3.16-1.54-5.04-1.54-5.21,0-9.4,3.68-9.4,8.89v22.49h-12.57v-42.49Z"/>
    <path class="cls-1" d="M269.84,20.21v12.4h8.38v10.35h-8.38v32.15h-12.57v-32.15h-5.3v-10.35h5.3v-12.4h12.57Z"/>
    <path class="cls-1" d="M296.77,32.61v24.11c0,5.73,2.82,8.55,7.95,8.55,5.39,0,8.04-2.82,8.04-8.81v-23.85h12.57v26.16c0,10.69-8.29,17.18-21.03,17.18s-20.09-6.24-20.09-16.93v-26.42h12.57Z"/>
    <path class="cls-1" d="M334.81,32.61h12.57v5.22h.17c2.31-3.25,6.07-6.07,11.97-6.07s10.34,2.82,12.48,7.18c3.25-4.79,8.12-7.18,13.68-7.18,9.06,0,14.28,5.98,14.28,14.96v28.38h-12.57v-24.54c0-5.81-2.31-8.55-6.75-8.55-4.7,0-7.01,2.82-7.01,7.95v25.14h-12.57v-24.54c0-5.47-1.97-8.55-6.58-8.55s-7.1,3.16-7.1,8.46v24.62h-12.57v-42.49Z"/>
    <path class="cls-1" d="M406.87,53.9c0-12.65,8.81-22.14,20.43-22.14,5.73,0,11.2,2.39,14.02,6.24h.09v-5.39h12.65v42.49h-12.65v-4.96h-.09c-3.16,3.76-8.29,5.81-14.11,5.81-12.14,0-20.35-8.89-20.35-22.06ZM442.18,53.64c0-6.92-4.79-11.37-11.29-11.37s-11.2,4.7-11.2,11.54,4.36,11.63,10.86,11.63c7.01,0,11.63-4.87,11.63-11.8Z"/>
    <path class="cls-1" d="M463.89,32.61h12.31v6.84h.26c2.82-4.53,8.29-7.69,12.14-7.69,1.11,0,1.88.09,2.56.26v13.17l-.26.09c-1.54-1.03-3.16-1.54-5.04-1.54-5.21,0-9.4,3.68-9.4,8.89v22.49h-12.57v-42.49Z"/>
    <path class="cls-1" d="M518.27,42.18c-6.5,0-11.71,4.45-11.71,11.63s5.04,11.8,11.97,11.8c3.16,0,6.84-1.2,9.83-3.59h.17v11.03c-3.51,1.8-8.21,2.91-12.4,2.91-13.68,0-22.49-9.32-22.49-22.06s9.92-22.14,23-22.14c3.85,0,8.29.94,11.8,2.65v11.2l-.17.09c-2.82-2.22-6.58-3.51-10-3.51Z"/>
  </g>
  <path class="cls-4" d="M203.54,111.57c-2.08-1.15-3.65-2.78-4.72-4.9-1.07-2.12-1.6-4.63-1.6-7.52s.53-5.37,1.6-7.5,2.64-3.76,4.72-4.9c2.08-1.13,4.59-1.7,7.54-1.7s5.43.57,7.5,1.72c2.08,1.15,3.66,2.78,4.74,4.9,1.08,2.12,1.62,4.61,1.62,7.48s-.54,5.41-1.62,7.52c-1.08,2.12-2.66,3.75-4.74,4.9-2.08,1.15-4.58,1.72-7.5,1.72s-5.47-.57-7.54-1.72ZM216.38,105.48c1.2-1.46,1.8-3.57,1.8-6.33s-.6-4.83-1.8-6.29c-1.2-1.46-2.97-2.19-5.29-2.19s-4.09.73-5.29,2.19c-1.2,1.46-1.8,3.56-1.8,6.29s.6,4.87,1.8,6.33c1.2,1.46,2.97,2.19,5.29,2.19s4.09-.73,5.29-2.19Z"/>
  <path class="cls-4" d="M233.25,85.58h6.64l5.41,16.77c.38,1.29.78,2.71,1.19,4.28.41,1.57.74,3.03.98,4.37h-1.48c.27-1.39.61-2.88,1-4.47.4-1.58.77-2.98,1.13-4.18l5.41-16.77h6.35l-9.27,27.18h-8.08l-9.31-27.18Z"/>
  <path class="cls-4" d="M277.04,85.69v27.18h-6.48v-27.18h6.48ZM290.24,85.69v5.41h-16.03v-5.41h16.03ZM288.65,96.47v5.17h-14.43v-5.17h14.43ZM290.24,107.46v5.41h-16.03v-5.41h16.03Z"/>
  <path class="cls-4" d="M304.58,85.26h6.48v27.18h-6.48v-27.18ZM308.48,97.44h7.63c1.61,0,2.76-.3,3.44-.9.68-.6,1.02-1.48,1.02-2.62s-.34-1.99-1.02-2.6c-.68-.62-1.83-.92-3.44-.92h-7.63v-5.12h8.12c3.74,0,6.46.72,8.14,2.17,1.68,1.45,2.52,3.4,2.52,5.86,0,2.21-.79,3.94-2.36,5.19-1.57,1.24-3.94,1.89-7.11,1.95h-1.11v1.76h-8.2v-4.76ZM319.12,106.51c-.26-1.12-.56-2.08-.9-2.68-.34-.6-.76-1.02-1.25-1.27s-1.16-.37-2.01-.37l.16-2.83h3.28c1.53,0,2.74.19,3.63.57.89.38,1.6,1,2.13,1.84.53.85,1.1,1.98,1.62,3.79.7,2.47.93,3.41,1.24,4.36.32.99.37,1.21.43,1.37l.35,1.09-7.26.05"/>
  <path class="cls-4" d="M342.14,85.56h4.92c.16,1.56.31,3.35.45,5.37.14,2.02.2,3.46.2,4.3v17.51h-5.58v-27.18ZM346.81,91.01c-.82-1.91-1.52-3.73-2.09-5.45h5.58l10.25,16.19c1.56,2.6,3.13,5.7,4.72,9.31v1.68h-5.25l-11.19-17.63c-.52-.82-1.19-2.19-2.01-4.1ZM361.92,106.65c-.23-2.28-.35-3.92-.35-4.9v-16.19h5.58v27.18h-4.47c-.27-1.78-.53-3.81-.76-6.09Z"/>
  <path class="cls-4" d="M381.48,85.3h4.84c.27,2.21.41,4.51.41,6.89v20.29h-5.25v-27.18ZM385.71,85.3h5.41l5.45,18.98c.38,1.45.7,3.27.94,5.45h-.86c.33-2.21.67-4.03,1.02-5.45l5.37-18.98h4.31c-.44,2.6-.93,4.89-1.48,6.89l-5.78,20.29h-7.01l-5.82-20.34c-.6-2.21-1.12-4.5-1.56-6.85ZM406.82,85.3h5.45v27.18h-5.86v-20.29c0-2.38.14-4.67.41-6.89Z"/>
  <path class="cls-4" d="M433.09,85.4v27.18h-6.48v-27.18h6.48ZM446.29,85.4v5.41h-16.03v-5.41h16.03ZM444.69,96.18v5.17h-14.43v-5.17h14.43ZM446.29,107.17v5.41h-16.03v-5.41h16.03Z"/>
  <path class="cls-4" d="M460.63,85.09h4.92c.16,1.56.31,3.35.45,5.37.14,2.02.2,3.46.2,4.3v17.51h-5.58v-27.18ZM465.31,90.54c-.82-1.91-1.52-3.73-2.09-5.45h5.58l10.25,16.19c1.56,2.6,3.13,5.7,4.72,9.31v1.68h-5.25l-11.19-17.63c-.52-.82-1.19-2.19-2.01-4.1ZM480.41,106.18c-.23-2.28-.35-3.92-.35-4.9v-16.19h5.58v27.18h-4.47c-.27-1.78-.53-3.81-.76-6.09Z"/>
  <path class="cls-4" d="M517.39,84.97v5.53h-21.69v-5.53h21.69ZM509.77,84.97v27.18h-6.48v-27.18h6.48Z"/>
  <path class="cls-4" d="M175.51,114.01c-2.3,0-4.37-.37-6.23-1.11-1.86-.74-3.46-1.78-4.8-3.12-1.34-1.34-2.37-2.92-3.08-4.74-.71-1.82-1.07-3.79-1.07-5.92s.38-4.09,1.13-5.88c.75-1.79,1.82-3.36,3.22-4.69,1.39-1.34,3.04-2.38,4.94-3.12,1.9-.74,3.97-1.11,6.21-1.11,1.58,0,3.08.21,4.49.62,1.41.41,2.68.97,3.83,1.68s2.12,1.53,2.91,2.46l-4.22,4.47c-.68-.66-1.39-1.2-2.11-1.64-.72-.44-1.5-.79-2.32-1.04-.82-.26-1.7-.39-2.62-.39-1.2,0-2.3.22-3.3.66-1,.44-1.87,1.04-2.62,1.82-.75.78-1.33,1.7-1.74,2.75-.41,1.05-.61,2.19-.61,3.42s.22,2.38.66,3.44c.44,1.07,1.04,1.99,1.8,2.77.76.78,1.67,1.39,2.73,1.85,1.05.45,2.18.68,3.38.68.85,0,1.65-.14,2.4-.41.75-.27,1.4-.64,1.95-1.11s.98-1.02,1.31-1.66c.33-.64.49-1.33.49-2.07v-1.07l.9,1.39h-7.91v-5.45h13.49c.05.3.1.71.12,1.23s.05,1.02.06,1.52.02.86.02,1.11c0,1.86-.33,3.56-1,5.1-.67,1.54-1.61,2.88-2.81,4-1.2,1.12-2.62,2-4.26,2.62-1.64.63-3.42.94-5.33.94Z"/>
</svg>